<svg width="122" height="172" viewBox="0 0 122 172" fill="none" xmlns="http://www.w3.org/2000/svg">
<path fill-rule="evenodd" clip-rule="evenodd" d="M39.8257 0C43.3108 0 46.136 2.82518 46.136 6.31018C46.136 9.79528 43.3108 12.6205 39.8257 12.6205C36.3407 12.6205 33.5155 9.79528 33.5155 6.31018C33.5155 2.82518 36.3407 0 39.8257 0ZM19.6885 17.4942C32.033 14.1638 47.6186 14.1638 59.9632 17.4942L58.3425 23.0157C55.5664 22.2544 52.7904 21.6741 50.0143 21.2677V35.1011C43.2221 33.7621 36.4296 33.6356 29.6373 35.1011V21.3211C26.8613 21.7295 24.0852 22.2962 21.3092 23.0157L19.6885 17.4942Z" fill="#A3192D"/>
<path fill-rule="evenodd" clip-rule="evenodd" d="M39.8257 171.071C43.3108 171.071 46.136 168.246 46.136 164.761C46.136 161.276 43.3108 158.45 39.8257 158.45C36.3407 158.45 33.5155 161.276 33.5155 164.761C33.5155 168.246 36.3407 171.071 39.8257 171.071ZM19.6885 153.577C32.033 156.907 47.6186 156.907 59.9632 153.577L58.3425 148.055C55.5664 148.817 52.7904 149.397 50.0143 149.803V135.97C43.2221 137.309 36.4296 137.435 29.6373 135.97V149.75C26.8613 149.341 24.0852 148.775 21.3092 148.055L19.6885 153.577Z" fill="#005192"/>
<path fill-rule="evenodd" clip-rule="evenodd" d="M90.356 16.521C93.1679 18.5798 93.7784 22.5284 91.7197 25.3403C89.6609 28.1521 85.7123 28.7627 82.9004 26.7039C80.0885 24.6451 79.478 20.6965 81.5367 17.8846C83.5955 15.0727 87.5441 14.4622 90.356 16.521ZM63.7734 18.7401C75.7011 23.3455 88.2764 32.5528 96.2691 42.5325L91.6996 46.0301C89.9095 43.7758 88.0125 41.6677 86.0127 39.6998L77.8406 50.8613C73.1512 45.7684 67.7454 41.6536 61.3994 38.8235L69.5399 27.7051C67.0588 26.3947 64.4842 25.2119 61.8192 24.1525L63.7734 18.7401Z" fill="#CD212F"/>
<path fill-rule="evenodd" clip-rule="evenodd" d="M121.367 59.702C122.42 63.0242 120.58 66.5708 117.257 67.6234C113.935 68.6759 110.388 66.8358 109.336 63.5135C108.283 60.1912 110.123 56.6447 113.446 55.5922C116.768 54.5396 120.315 56.3797 121.367 59.702ZM98.608 45.7886C105.511 56.5509 110.218 71.4087 110.772 84.1826L105.019 84.3052C104.906 81.4288 104.621 78.6071 104.17 75.838L90.9823 80.0159C90.2073 73.1364 88.2765 66.623 84.8281 60.5905L97.9645 56.4286C96.7368 53.9056 95.3582 51.4304 93.8338 49.0013L98.608 45.7886Z" fill="#F49500"/>
<path fill-rule="evenodd" clip-rule="evenodd" d="M120.878 112.862C119.765 116.165 116.185 117.939 112.883 116.826C109.58 115.713 107.806 112.133 108.919 108.83C110.033 105.528 113.613 103.753 116.915 104.867C120.217 105.98 121.992 109.56 120.878 112.862ZM110.735 88.1915C109.947 100.953 104.967 115.722 97.8674 126.355L93.153 123.056C94.7614 120.668 96.1982 118.223 97.4702 115.722L84.3618 111.303C87.8006 105.294 90.0906 98.8982 90.872 91.9937L103.93 96.3962C104.43 93.6352 104.78 90.8236 104.985 87.9631L110.735 88.1915Z" fill="#B3CB2F"/>
<path fill-rule="evenodd" clip-rule="evenodd" d="M89.0796 155.467C86.2304 157.474 82.2936 156.791 80.2869 153.941C78.2801 151.092 78.9631 147.155 81.8124 145.148C84.6616 143.142 88.5983 143.825 90.6051 146.674C92.6119 149.523 91.9289 153.46 89.0796 155.467ZM95.4696 129.568C87.2948 139.399 74.5525 148.374 62.5422 152.76L60.6878 147.312C63.3958 146.336 65.9996 145.212 68.5032 143.946L60.5376 132.636C66.8617 129.82 72.4879 126.012 77.1972 120.902L85.1321 132.168C87.1665 130.236 89.1098 128.174 90.9651 125.987L95.4696 129.568Z" fill="#00B09A"/>
<path d="M40.4496 45.0862C62.7891 45.0862 80.8991 63.1959 80.8991 85.5358C80.8991 107.875 62.7891 125.985 40.4496 125.985C18.11 125.985 0 107.875 0 85.5358C0 63.1959 18.11 45.0862 40.4496 45.0862Z" fill="url(#paint0_linear_21_709)"/>
<path d="M40.4494 54.8652C23.5107 54.8652 9.77881 68.5968 9.77881 85.5358C9.77881 102.475 23.5107 116.206 40.4494 116.206C57.3884 116.206 71.1199 102.475 71.1199 85.5358C71.1199 68.5968 57.3884 54.8652 40.4494 54.8652Z" fill="url(#paint1_linear_21_709)"/>
<defs>
<linearGradient id="paint0_linear_21_709" x1="0" y1="45.0862" x2="80.8991" y2="45.0862" gradientUnits="userSpaceOnUse">
<stop stop-color="#00AA7A"/>
<stop offset="0.67" stop-color="#0089A2"/>
<stop offset="1" stop-color="#0088A2"/>
</linearGradient>
<linearGradient id="paint1_linear_21_709" x1="-751.116" y1="-1178.79" x2="-751.116" y2="-1240.14" gradientUnits="userSpaceOnUse">
<stop stop-color="#009EE0"/>
<stop offset="1" stop-color="#163754"/>
</linearGradient>
</defs>
</svg>
